# xmcd
#
# Track frame offsets:
#	150
#	20718
#	39302
#	56396
#	76757
#	99953
#	123436
#	146285
#	163802
#	186797
#	204371
#	230659
#	247940
#	265990
#
# Disc length: 3827 seconds
#
# Revision: 0
# Processed by: cddbd v1.4PL0 Copyright (c) Steve Scherf et al.
# Submitted via: dBpowerAMP V4.0
#
DISCID=b00ef10e
DTITLE=Griff - Blues and Beer
DYEAR=1997
DGENRE=Blues
TTITLE0=Use It or Lose It
TTITLE1=Sounds Like The Blues
TTITLE2=The Game
TTITLE3=Blues and Beer
TTITLE4=Savannah in the Rain
TTITLE5=Tell Me If It hurts
TTITLE6=Donna's Song
TTITLE7=I Can't Help It
TTITLE8=I'll Be Long Gone
TTITLE9=I'll Keep Hanging On
TTITLE10=I'm Like a Dead Man Walking
TTITLE11=Turn the Tables
TTITLE12=Drunk Woman Blues
TTITLE13=I Ain't Gonna Do It Again
EXTD=(C)1997 Ripete Records, Inc.\n1111 S. Main Street\nElliott, SC 29046\n(803) 428-3358\nhttp://www.ripete.com
EXTT0=
EXTT1=
EXTT2=
EXTT3=
EXTT4=
EXTT5=
EXTT6=
EXTT7=
EXTT8=
EXTT9=
EXTT10=
EXTT11=
EXTT12=
EXTT13=
PLAYORDER=
